HIERARCHY
ROOT hip
{
	OFFSET 0.000000 0.000000 0.000000 
	CHANNELS 6 Xposition Yposition Zposition Xrotation Zrotation Yrotation
	JOINT abdomen
	{
		OFFSET 0.000000 3.402643 0.000000 
		CHANNELS 3 Xrotation Zrotation Yrotation
		JOINT chest
		{
			OFFSET 0.000000 8.438565 -0.680529 
			CHANNELS 3 Xrotation Zrotation Yrotation
			JOINT neck
			{
				OFFSET 0.000000 10.207942 -0.272212 
				CHANNELS 3 Xrotation Zrotation Yrotation
				JOINT head
				{
					OFFSET 0.000000 3.130431 0.000000 
					CHANNELS 3 Xrotation Zrotation Yrotation
					End Site
					{
						OFFSET 0.000000 3.130435 0.000000 
					}
				}
			}
			JOINT lCollar
			{
				OFFSET 3.470700 6.669187 -0.816635 
				CHANNELS 3 Yrotation Zrotation Xrotation
				JOINT lShldr
				{
					OFFSET 3.198488 0.000000 0.000000 
					CHANNELS 3 Zrotation Yrotation Xrotation
					JOINT lForeArm
					{
						OFFSET 10.139888 0.000000 0.000000 
						CHANNELS 3 Yrotation Zrotation Xrotation
						JOINT lHand
						{
							OFFSET 8.370511 0.000000 0.000000 
							CHANNELS 3 Zrotation Yrotation Xrotation
							End Site
							{
								OFFSET 4.083176 0.000000 0.000000 
							}
						}
					}
				}
			}
			JOINT rCollar
			{
				OFFSET -3.470700 6.669187 -0.816635 
				CHANNELS 3 Yrotation Zrotation Xrotation
				JOINT rShldr
				{
					OFFSET -3.198488 0.000000 0.000000 
					CHANNELS 3 Zrotation Yrotation Xrotation
					JOINT rForeArm
					{
						OFFSET -10.139888 0.000000 0.000000 
						CHANNELS 3 Yrotation Zrotation Xrotation
						JOINT rHand
						{
							OFFSET -8.370511 0.000000 0.000000 
							CHANNELS 3 Zrotation Yrotation Xrotation
							End Site
							{
								OFFSET -4.083176 0.000000 0.000000 
							}
						}
					}
				}
			}
		}
	}
	JOINT lThigh
	{
		OFFSET 5.308129 -1.633274 1.361059 
		CHANNELS 3 Xrotation Zrotation Yrotation
		JOINT lShin
		{
			OFFSET -2.041588 -20.007561 0.000000 
			CHANNELS 3 Xrotation Zrotation Yrotation
			JOINT lFoot
			{
				OFFSET 0.000000 -19.190928 -1.224953 
				CHANNELS 3 Xrotation Yrotation Zrotation
				End Site
				{
					OFFSET 0.000000 -2.449906 4.627600 
				}
			}
		}
	}
	JOINT rThigh
	{
		OFFSET -5.308129 -1.633274 1.361059 
		CHANNELS 3 Xrotation Zrotation Yrotation
		JOINT rShin
		{
			OFFSET 2.041588 -20.007561 0.000000 
			CHANNELS 3 Xrotation Zrotation Yrotation
			JOINT rFoot
			{
				OFFSET 0.000000 -19.190928 -1.224953 
				CHANNELS 3 Xrotation Yrotation Zrotation
				End Site
				{
					OFFSET 0.000000 -2.449906 4.627600 
				}
			}
		}
	}
}
MOTION
Frames: 14
Frame Time: 0.016667
-201.217712 38.027515 151.483261 -4.181430 -8.912145 119.730675 43.985970 -7.164003 8.255445 -20.839844 0.000000 0.000000 -30.252844 3.769176 -0.364272 8.603792 -1.684224 0.126603 -4.754609 -0.109183 -0.002653 -50.398560 28.844511 11.558675 -17.443762 0.475525 34.319794 178.466858 193.648361 102.242851 4.754609 0.109183 -0.002672 23.698803 34.948376 -11.393358 105.397530 19.927248 7.984819 138.102142 159.139297 -26.228245 -64.921532 6.502236 0.883269 71.832306 -1.648876 1.715394 -11.963573 7.709144 4.031962 32.826065 -15.516643 -14.174612 -3.288604 -4.088326 -8.267431 23.474907 -6.026986 26.451773 
-195.464661 38.295170 146.162323 -1.341620 -8.132566 126.683441 43.795135 -8.132715 7.612615 -20.839844 0.000000 0.000000 -28.250113 2.706859 -7.455798 8.603792 -1.684224 0.126603 -4.754609 -0.109183 -0.002653 -50.105713 19.139761 5.139012 -21.871216 -5.641857 30.257631 178.256851 194.350845 87.962418 4.754609 0.109183 -0.002672 35.827011 24.996336 -5.146830 92.063980 21.737625 13.629139 145.702545 155.871857 -28.100834 -60.533501 4.570218 3.091371 50.390190 -5.361282 2.419479 -15.944928 4.256574 3.073661 43.850338 -11.982332 -13.178993 -5.430538 -4.660015 -9.443447 34.470654 -3.681929 21.241425 
-189.670731 38.436665 140.405197 -0.550601 -6.669617 134.506882 43.618217 -4.759443 6.021677 -20.839844 0.000000 0.000000 -27.280617 2.915981 -12.385865 8.603792 -1.684224 0.126603 -4.754609 -0.109183 -0.002653 -55.954590 6.978693 0.888005 -25.768713 -10.696058 24.995024 179.150192 194.186691 78.550629 4.754609 0.109183 -0.002672 50.538982 15.975209 -1.125874 67.322113 18.497055 23.352283 154.573685 151.615677 -30.768946 -53.817017 2.050928 4.926715 38.004345 -7.730132 2.714163 -17.536932 -0.265391 1.657872 40.941048 -10.565864 -12.453816 18.489023 2.638556 -8.243685 29.620348 -3.385341 15.127918 
-184.226685 38.098522 134.966263 0.805936 -6.483739 140.094009 43.965630 -3.666078 1.954905 -20.839844 0.000000 0.000000 -27.689301 4.174690 -15.093938 8.603792 -1.684224 0.126603 -4.754609 -0.109183 -0.002653 -64.237465 -5.257967 3.384857 -31.736799 -12.734221 20.044960 -178.097488 194.538162 78.979660 4.754609 0.109183 -0.002672 65.637131 14.641312 -0.310673 33.174671 7.016747 28.805630 161.158066 138.879135 -34.582462 -49.670940 -0.918168 4.969984 41.803974 -8.336598 2.720940 -15.055510 -0.737386 4.298010 28.351786 -14.968652 -15.605799 54.962322 6.588249 -3.069953 18.753624 -4.432514 10.345126 
-179.038040 37.693462 129.654510 1.642766 -6.901486 144.049683 44.529282 -2.630760 -3.650977 -20.839844 0.000000 0.000000 -29.266445 6.384184 -15.620317 8.603792 -1.684224 0.126603 -4.754609 -0.109183 -0.002653 -72.461899 -17.335510 8.429436 -39.819710 -13.326504 15.507429 -175.249023 195.003464 80.109833 4.754609 0.109183 -0.002672 75.546303 18.042532 -0.172513 -2.728431 -0.189806 26.385921 166.522903 133.009674 -39.463577 -45.328259 -1.894220 4.915328 51.213852 -9.068803 1.941674 -13.947828 -0.461184 6.973954 12.909113 -20.419775 -16.009031 81.434929 3.715897 -1.397295 10.152043 -7.282358 6.753086 
-173.974548 37.471272 124.451599 1.870477 -7.261796 146.501190 44.997620 -0.880481 -10.104519 -20.839844 0.000000 0.000000 -31.148176 9.453193 -13.851889 8.603792 -1.684224 0.126603 -4.754609 -0.109183 -0.002653 -78.882889 -28.997707 13.319511 -48.291351 -12.450534 11.578146 -175.117401 194.059677 78.948990 4.754609 0.109183 -0.002672 81.450409 2.962925 -4.264297 4.417068 0.365016 26.187426 170.115936 137.411514 -41.735264 -38.540127 -0.751819 5.354965 59.567062 -9.900738 0.395169 -22.883009 -1.918058 7.411623 -9.188598 -24.585546 -10.451545 96.534332 -1.806902 -2.020302 3.514208 -8.961493 3.446638 
-168.844666 37.422741 119.291092 1.977628 -6.997824 147.199799 45.199581 1.451669 -16.559143 -20.839844 0.000000 0.000000 -32.023575 13.073999 -9.798265 8.603792 -1.684224 0.126603 -4.754609 -0.109183 -0.002653 -79.928589 -39.454327 16.704210 -55.858337 -12.118335 8.420124 -175.090744 192.877777 79.186523 4.754609 0.109183 -0.002672 86.881271 -6.625197 -7.781005 3.452432 0.302405 24.754431 169.074478 138.400192 -39.817245 -29.363871 1.669738 5.888749 64.489929 -10.160060 -0.554681 -32.177944 -2.827119 7.684550 -32.848232 -23.728083 -1.497530 96.957405 -7.275251 -3.601364 -0.771351 -9.987150 2.026114 
-163.572769 37.463604 114.081482 2.640501 -5.804420 146.206772 45.123409 3.760356 -22.172506 -20.839844 0.000000 0.000000 -30.831539 16.425127 -3.942950 8.603792 -1.684224 0.126603 -4.754609 -0.109183 -0.002653 -71.589142 -46.576885 15.601199 -62.739216 -15.326531 7.318867 -169.069336 192.119858 80.828827 4.754609 0.109183 -0.002672 91.286537 -14.920359 -11.373276 2.823137 0.298879 23.148085 166.332214 137.628143 -35.499828 -18.019163 5.835986 7.430086 65.658424 -10.199835 -1.102124 -28.839422 -1.967531 3.623870 -48.810345 -18.884352 5.073156 84.038078 -11.171419 -3.400978 -4.425532 -12.131610 3.092351 
-158.172668 37.499866 108.778450 4.374613 -3.748844 144.137222 44.962170 5.302490 -26.266935 -20.839844 0.000000 0.000000 -27.625847 18.390879 2.422606 8.603792 -1.684224 0.126603 -4.754609 -0.109183 -0.002653 -60.180420 -46.394939 11.020241 -68.226685 -19.930553 7.733900 -161.251724 190.615738 81.056122 4.754609 0.109183 -0.002672 95.299271 -22.105307 -14.913984 3.034521 0.293586 21.925312 163.769043 135.240891 -30.516245 -5.653447 9.987875 10.058187 65.253418 -10.189267 -0.705457 -15.752829 -0.715029 1.615550 -53.663170 -12.997455 10.180464 61.822910 -12.967123 -0.505215 -6.683746 -18.018303 8.375757 
-152.541153 37.366039 103.299156 7.159710 -1.172429 142.147491 45.001583 5.855352 -28.356339 -20.839844 0.000000 0.000000 -23.677273 18.387438 7.394181 8.603792 -1.684224 0.126603 -4.754609 -0.109183 -0.002653 -57.589848 -39.702671 9.560577 -67.132912 -22.238567 9.660336 -158.953384 190.266693 80.592102 4.754609 0.109183 -0.002672 99.066887 -27.201517 -17.875624 2.731948 0.299503 21.254366 162.397888 131.526947 -26.624577 4.949504 12.224996 11.749912 66.645515 -9.191936 0.285281 -1.599466 1.710187 2.639195 -49.430775 -10.175463 11.699353 35.284248 -14.338675 1.381186 -6.034537 -24.462334 14.348474 
-146.699753 36.960476 97.608940 10.325611 1.450738 141.162888 45.309826 5.849002 -28.083923 -20.839844 0.000000 0.000000 -20.575672 16.720020 9.411840 8.603792 -1.684224 0.126603 -4.754609 -0.109183 -0.002653 -64.007332 -31.184401 10.429278 -57.466164 -19.894588 14.366439 -162.644226 193.278244 78.284271 4.754609 0.109183 -0.002672 101.016289 -28.522902 -18.888870 0.483469 0.303798 21.275784 161.013916 128.229919 -25.209751 10.289407 12.693287 11.152037 73.664474 -6.751373 0.361399 3.478096 4.358214 4.031940 -43.297840 -11.180984 7.324450 16.907749 -13.154147 -1.157507 -7.073744 -24.713701 13.641945 
-140.972733 36.318913 91.856407 12.811273 3.761673 140.991531 45.682140 5.868662 -25.102093 -20.839844 0.000000 0.000000 -19.147024 14.061298 8.295728 8.603792 -1.684224 0.126603 -4.754609 -0.109183 -0.002653 -72.720055 -23.626312 9.313847 -46.326801 -13.452057 19.338806 -168.692581 197.581284 70.931969 4.754609 0.109183 -0.002672 100.022118 -26.544495 -17.700897 0.759635 0.294847 21.434725 159.104843 128.039063 -25.370304 8.346983 12.624809 9.700518 86.178795 -4.332228 -0.319703 0.364761 5.505040 5.029069 -40.425919 -11.952294 2.821295 18.112694 -10.842556 -5.519294 -6.911512 -22.138336 10.950033 
-135.642624 35.583378 86.264244 13.822034 5.795207 140.427597 45.954018 6.186265 -19.457401 -20.839844 0.000000 0.000000 -19.287659 10.860270 5.386774 8.603792 -1.684224 0.126603 -4.754609 -0.109183 -0.002653 -79.112473 -18.613844 6.123224 -38.176434 -7.148346 21.674219 -172.682739 200.743607 62.091309 4.754609 0.109183 -0.002672 95.249168 -21.104849 -14.463060 2.275226 0.273130 21.063942 158.799164 131.120514 -26.755070 -1.133353 12.904754 9.232085 98.939415 -3.915341 -2.008066 -5.024741 4.309625 6.778513 -38.326668 -11.210194 2.245558 26.013927 -8.734638 -5.395697 3.743938 -19.406639 9.437059 
-130.796722 34.996979 80.992851 13.347604 7.775172 138.118073 46.309620 6.661610 -12.025356 -20.839844 0.000000 0.000000 -20.291349 7.510920 2.872857 8.603792 -1.684224 0.126603 -4.754609 -0.109183 -0.002653 -82.428139 -16.478655 1.492884 -31.144629 -2.265837 18.738413 -174.755051 202.680527 56.757545 4.754609 0.109183 -0.002672 87.169388 -12.608265 -10.574621 2.435980 0.278936 21.853189 160.844742 135.269485 -30.721857 -17.211914 13.285927 9.237383 104.900131 -5.450989 -4.283194 -8.329858 2.093210 8.593190 -38.777679 -10.175294 4.329170 39.273880 -4.097752 -1.855671 11.289203 -15.525061 6.836041 
